<svg width="21" height="22" viewBox="0 0 21 22" fill="none" xmlns="http://www.w3.org/2000/svg">
    <path d="M5.5 1C5.5 0.447715 5.05228 0 4.5 0C3.94772 0 3.5 0.447715 3.5 1V1.44885C3.88032 1.32821 4.28554 1.24208 4.71533 1.17961C4.96328 1.14357 5.22472 1.11476 5.5 1.09173V1Z" fill="#266FEF"/>
    <path d="M17.5 1.44885C17.1197 1.32821 16.7145 1.24208 16.2847 1.17961C16.0367 1.14357 15.7753 1.11476 15.5 1.09173V1C15.5 0.447715 15.9477 0 16.5 0C17.0523 0 17.5 0.447715 17.5 1V1.44885Z" fill="#266FEF"/>
    <path fill-rule="evenodd" clip-rule="evenodd" d="M11.5288 1H9.47122C7.52294 0.999969 5.95141 0.999944 4.71533 1.17961C3.42535 1.3671 2.3568 1.76781 1.51802 2.6746C0.689493 3.57031 0.332789 4.69272 0.164161 6.04866C-3.35127e-05 7.36894 -1.84905e-05 9.05407 4.04024e-07 11.1739V11.8261C-1.84905e-05 13.9459 -3.35127e-05 15.6311 0.164161 16.9513C0.332789 18.3073 0.689493 19.4297 1.51802 20.3254C2.3568 21.2322 3.42535 21.6329 4.71533 21.8204C5.95142 22.0001 7.52293 22 9.47122 22H11.5288C13.4771 22 15.0486 22.0001 16.2847 21.8204C17.5747 21.6329 18.6432 21.2322 19.482 20.3254C20.3105 19.4297 20.6672 18.3073 20.8358 16.9513C21 15.6311 21 13.9459 21 11.8261V11.1739C21 9.05408 21 7.36895 20.8358 6.04866C20.6672 4.69272 20.3105 3.57031 19.482 2.6746C18.6432 1.76781 17.5747 1.3671 16.2847 1.17961C15.0486 0.999944 13.4771 0.999969 11.5288 1ZM2.99783 8C2.53921 8 2.3099 8 2.16385 8.14417C2.01781 8.28833 2.01487 8.51472 2.009 8.96751C2.00027 9.64067 2 10.3942 2 11.2432V11.7568C2 13.9616 2.00182 15.5221 2.14887 16.7045C2.29327 17.8656 2.56263 18.5094 2.98622 18.9673C3.39956 19.4142 3.9647 19.6903 5.003 19.8412C6.07858 19.9975 7.50425 20 9.55 20H11.45C13.4957 20 14.9214 19.9975 15.997 19.8412C17.0353 19.6903 17.6004 19.4142 18.0138 18.9673C18.4374 18.5094 18.7067 17.8656 18.8511 16.7045C18.9982 15.5221 19 13.9616 19 11.7568V11.2432C19 10.3942 18.9997 9.64067 18.991 8.96751C18.9851 8.51472 18.9822 8.28833 18.8362 8.14417C18.6901 8 18.4608 8 18.0022 8H2.99783Z" fill="#266FEF"/>
    <path fill-rule="evenodd" clip-rule="evenodd" d="M5.25 12C5.25 11.3096 5.80964 10.75 6.5 10.75H6.50897C7.19933 10.75 7.75897 11.3096 7.75897 12C7.75897 12.6904 7.19933 13.25 6.50897 13.25H6.5C5.80964 13.25 5.25 12.6904 5.25 12ZM9.24551 12C9.24551 11.3096 9.80516 10.75 10.4955 10.75H10.5045C11.1948 10.75 11.7545 11.3096 11.7545 12C11.7545 12.6904 11.1948 13.25 10.5045 13.25H10.4955C9.80516 13.25 9.24551 12.6904 9.24551 12ZM13.241 12C13.241 11.3096 13.8007 10.75 14.491 10.75H14.5C15.1904 10.75 15.75 11.3096 15.75 12C15.75 12.6904 15.1904 13.25 14.5 13.25H14.491C13.8007 13.25 13.241 12.6904 13.241 12ZM5.25 16C5.25 15.3096 5.80964 14.75 6.5 14.75H6.50897C7.19933 14.75 7.75897 15.3096 7.75897 16C7.75897 16.6904 7.19933 17.25 6.50897 17.25H6.5C5.80964 17.25 5.25 16.6904 5.25 16ZM9.24551 16C9.24551 15.3096 9.80516 14.75 10.4955 14.75H10.5045C11.1948 14.75 11.7545 15.3096 11.7545 16C11.7545 16.6904 11.1948 17.25 10.5045 17.25H10.4955C9.80516 17.25 9.24551 16.6904 9.24551 16Z" fill="#266FEF"/>
</svg>
