<svg width="187" height="187" viewBox="0 0 187 187" fill="none" xmlns="http://www.w3.org/2000/svg">
    <path fill-rule="evenodd" clip-rule="evenodd" d="M156.783 76.9818L153.348 73.5456C151.158 71.3562 149.926 68.3797 149.926 65.2786V60.44C149.926 47.537 139.47 37.0807 126.567 37.0807H121.729C118.628 37.0807 115.659 35.8496 113.462 33.6602L110.025 30.224C100.901 21.0999 86.1129 21.0999 76.9888 30.224L73.5524 33.6602C71.3629 35.8496 68.3872 37.0807 65.2861 37.0807H60.4477C47.5447 37.0807 37.0879 47.537 37.0879 60.44V65.2786C37.0879 68.3797 35.8571 71.3484 33.6677 73.5456L30.2312 76.9818C21.1072 86.1059 21.1072 100.894 30.2312 110.018L33.6677 113.455C35.8571 115.644 37.0879 118.621 37.0879 121.722V126.56C37.0879 139.463 47.5447 149.92 60.4477 149.92H65.2861C68.3872 149.92 71.3551 151.151 73.5524 153.34L76.9888 156.776C86.1129 165.9 100.901 165.9 110.025 156.776L113.462 153.34C115.651 151.151 118.628 149.92 121.729 149.92H126.567C139.47 149.92 149.926 139.463 149.926 126.56V121.722C149.926 118.621 151.158 115.652 153.348 113.455L156.783 110.018C165.907 100.894 165.907 86.1059 156.783 76.9818ZM121.004 82.0464L89.8377 113.213C88.7001 114.351 87.2038 114.927 85.7078 114.927C84.2118 114.927 82.7156 114.358 81.578 113.213L65.9947 97.6297C63.7117 95.3467 63.7117 91.6457 65.9947 89.3627C68.2777 87.0798 71.979 87.0798 74.2619 89.3627L85.7155 100.816L112.752 73.7794C115.035 71.4964 118.737 71.4964 121.02 73.7794C123.287 76.0623 123.287 79.7712 121.004 82.0464Z" fill="#266FEF"/>
</svg>
