<svg width="24" height="24" viewBox="0 0 24 24" fill="none" xmlns="http://www.w3.org/2000/svg">
    <path d="M13.7077 2.09963C14.9684 2.09963 15.9343 3.22006 15.7487 4.46694L15.0622 11.2594C14.6615 14.3199 12.0535 16.6089 8.96682 16.6089C5.80453 16.6089 3.15814 14.2098 2.84894 11.0626L2.38066 4.39201C2.24416 3.16934 3.20106 2.09958 4.43135 2.09958H4.51807" stroke="#FF6900" stroke-width="1.41018" stroke-miterlimit="10"/>
    <path d="M8.96681 16.6088V17.9728C8.96681 20.9121 11.3496 23.2949 14.2889 23.2949C17.2282 23.2949 19.6109 20.9121 19.6109 17.9728V13.6004M6.27299 3.4941H5.91259C5.14245 3.4941 4.51807 2.86977 4.51807 2.09957C4.51811 1.32943 5.14245 0.705095 5.91259 0.705095H6.27299C7.04314 0.705095 7.66752 1.32943 7.66752 2.09962C7.66752 2.86977 7.04318 3.4941 6.27299 3.4941ZM12.2898 3.4941H11.9294C11.1592 3.4941 10.5348 2.86977 10.5348 2.09957C10.5348 1.32943 11.1592 0.705048 11.9294 0.705048H12.2898C13.0599 0.705048 13.6843 1.32938 13.6843 2.09957C13.6843 2.86977 13.06 3.4941 12.2898 3.4941Z" stroke="#FF6900" stroke-width="1.41018" stroke-miterlimit="10"/>
    <path d="M19.6111 13.6004C20.7274 13.6004 21.6324 12.6954 21.6324 11.5791C21.6324 10.4628 20.7274 9.55786 19.6111 9.55786C18.4948 9.55786 17.5898 10.4628 17.5898 11.5791C17.5898 12.6954 18.4948 13.6004 19.6111 13.6004Z" stroke="#FF6900" stroke-width="1.41018" stroke-miterlimit="10"/>
</svg>
